<?xml version="1.0" encoding="UTF-8"?>
<svg xmlns="http://www.w3.org/2000/svg" xmlns:xlink="http://www.w3.org/1999/xlink" width="180px" height="180px" viewBox="0 0 180 180" version="1.1">
<g id="surface1">
<path style=" stroke:none;fill-rule:nonzero;fill:rgb(5.098039%,40%,64.705882%);fill-opacity:1;" d="M 0 0 L 179.976562 0 L 179.976562 179.976562 L 0 179.976562 Z M 0 0 "/>
<path style=" stroke:none;fill-rule:nonzero;fill:rgb(100%,100%,100%);fill-opacity:1;" d="M 161 63.792969 L 139.785156 63.792969 L 117.855469 98.109375 L 136.222656 133.136719 L 154.878906 133.136719 L 136.792969 98.25 Z M 161 63.792969 "/>
<path style=" stroke:none;fill-rule:nonzero;fill:rgb(100%,100%,100%);fill-opacity:1;" d="M 115.007812 34.03125 L 99.914062 34.03125 L 98.632812 47.558594 L 103.757812 47.558594 L 96.066406 133.136719 L 113.867188 133.136719 L 121.984375 41.007812 C 121.984375 37.589844 118.851562 34.03125 115.007812 34.03125 "/>
<path style=" stroke:none;fill-rule:nonzero;fill:rgb(100%,83.137255%,1.568627%);fill-opacity:1;" d="M 90.378906 83.015625 L 85.964844 133.136719 L 68.167969 133.136719 L 72.582031 83.726562 C 72.722656 82.304688 72.582031 80.59375 71.582031 79.597656 C 70.871094 79.027344 69.875 78.742188 68.59375 78.742188 C 61.472656 78.742188 54.210938 83.871094 47.945312 87.003906 L 43.816406 133.136719 L 26.160156 133.136719 L 31 77.320312 L 26.015625 77.320312 L 27.15625 63.648438 L 40.683594 63.648438 C 44.527344 63.648438 47.660156 67.351562 47.660156 70.769531 L 47.660156 70.910156 C 50.792969 69.34375 53.925781 67.777344 57.203125 66.496094 C 63.183594 64.078125 69.589844 62.367188 75.996094 62.226562 C 81.265625 62.367188 86.109375 64.21875 88.527344 69.203125 C 90.664062 73.332031 90.808594 78.316406 90.378906 83.015625 "/>
</g>
</svg>
