<?xml version="1.0" encoding="UTF-8"?>
<svg xmlns="http://www.w3.org/2000/svg" xmlns:xlink="http://www.w3.org/1999/xlink" width="48px" height="48px" viewBox="0 0 48 48" version="1.1">
<defs>
<filter id="alpha" filterUnits="objectBoundingBox" x="0%" y="0%" width="100%" height="100%">
  <feColorMatrix type="matrix" in="SourceGraphic" values="0 0 0 0 1 0 0 0 0 1 0 0 0 0 1 0 0 0 1 0"/>
</filter>
<mask id="mask0">
  <g filter="url(#alpha)">
<rect x="0" y="0" width="48" height="48" style="fill:rgb(0%,0%,0%);fill-opacity:0.101961;stroke:none;"/>
  </g>
</mask>
<clipPath id="clip1">
  <rect x="0" y="0" width="48" height="48"/>
</clipPath>
<g id="surface5" clip-path="url(#clip1)">
<path style=" stroke:none;fill-rule:nonzero;fill:rgb(0%,0%,0%);fill-opacity:1;" d="M 24.746094 9.601562 L 11.164062 9.601562 L 11.164062 39.601562 L 24.746094 39.601562 C 25.871094 39.597656 26.785156 38.613281 26.789062 37.402344 L 26.789062 11.800781 C 26.785156 10.585938 25.871094 9.605469 24.746094 9.601562 Z M 24.746094 9.601562 "/>
</g>
<mask id="mask1">
  <g filter="url(#alpha)">
<rect x="0" y="0" width="48" height="48" style="fill:rgb(0%,0%,0%);fill-opacity:0.2;stroke:none;"/>
  </g>
</mask>
<clipPath id="clip2">
  <rect x="0" y="0" width="48" height="48"/>
</clipPath>
<g id="surface8" clip-path="url(#clip2)">
<path style=" stroke:none;fill-rule:nonzero;fill:rgb(0%,0%,0%);fill-opacity:1;" d="M 23.628906 10.800781 L 11.164062 10.800781 L 11.164062 40.800781 L 23.628906 40.800781 C 24.757812 40.796875 25.671875 39.8125 25.675781 38.601562 L 25.675781 13 C 25.671875 11.785156 24.757812 10.804688 23.628906 10.800781 Z M 23.628906 10.800781 "/>
</g>
<mask id="mask2">
  <g filter="url(#alpha)">
<rect x="0" y="0" width="48" height="48" style="fill:rgb(0%,0%,0%);fill-opacity:0.2;stroke:none;"/>
  </g>
</mask>
<clipPath id="clip3">
  <rect x="0" y="0" width="48" height="48"/>
</clipPath>
<g id="surface11" clip-path="url(#clip3)">
<path style=" stroke:none;fill-rule:nonzero;fill:rgb(0%,0%,0%);fill-opacity:1;" d="M 23.628906 10.800781 L 11.164062 10.800781 L 11.164062 38.398438 L 23.628906 38.398438 C 24.757812 38.394531 25.671875 37.414062 25.675781 36.199219 L 25.675781 13 C 25.671875 11.785156 24.757812 10.804688 23.628906 10.800781 Z M 23.628906 10.800781 "/>
</g>
<mask id="mask3">
  <g filter="url(#alpha)">
<rect x="0" y="0" width="48" height="48" style="fill:rgb(0%,0%,0%);fill-opacity:0.2;stroke:none;"/>
  </g>
</mask>
<clipPath id="clip4">
  <rect x="0" y="0" width="48" height="48"/>
</clipPath>
<g id="surface14" clip-path="url(#clip4)">
<path style=" stroke:none;fill-rule:nonzero;fill:rgb(0%,0%,0%);fill-opacity:1;" d="M 22.511719 10.800781 L 11.164062 10.800781 L 11.164062 38.398438 L 22.511719 38.398438 C 23.640625 38.394531 24.554688 37.414062 24.558594 36.199219 L 24.558594 13 C 24.554688 11.785156 23.640625 10.804688 22.511719 10.800781 Z M 22.511719 10.800781 "/>
</g>
<linearGradient id="linear0" gradientUnits="userSpaceOnUse" x1="203.5132" y1="1729.0183" x2="967.9868" y2="404.9817" gradientTransform="matrix(0.0209607,0,0,-0.0225352,0.00262009,48.04507)">
<stop offset="0" style="stop-color:rgb(9.411765%,53.333333%,30.980392%);stop-opacity:1;"/>
<stop offset="0.5" style="stop-color:rgb(6.666667%,49.411765%,26.27451%);stop-opacity:1;"/>
<stop offset="1" style="stop-color:rgb(4.313725%,40%,19.215686%);stop-opacity:1;"/>
</linearGradient>
</defs>
<g id="surface1">
<path style=" stroke:none;fill-rule:nonzero;fill:rgb(9.411765%,36.078431%,21.568627%);fill-opacity:1;" d="M 30.140625 22.800781 L 11.164062 19.199219 L 11.164062 45.800781 C 11.164062 47.015625 12.082031 48 13.210938 48 L 45.953125 48 C 47.082031 48 47.996094 47.015625 47.996094 45.800781 L 47.996094 36 Z M 30.140625 22.800781 "/>
<path style=" stroke:none;fill-rule:nonzero;fill:rgb(12.941176%,63.921569%,40%);fill-opacity:1;" d="M 30.140625 0 L 13.210938 0 C 12.082031 0 11.164062 0.984375 11.164062 2.199219 L 11.164062 12 L 30.140625 24 L 40.183594 27.601562 L 47.996094 24 L 47.996094 12 Z M 30.140625 0 "/>
<path style=" stroke:none;fill-rule:nonzero;fill:rgb(6.27451%,48.627451%,25.490196%);fill-opacity:1;" d="M 11.164062 12 L 30.140625 12 L 30.140625 24 L 11.164062 24 Z M 11.164062 12 "/>
<use xlink:href="#surface5" mask="url(#mask0)"/>
<use xlink:href="#surface8" mask="url(#mask1)"/>
<use xlink:href="#surface11" mask="url(#mask2)"/>
<use xlink:href="#surface14" mask="url(#mask3)"/>
<path style=" stroke:none;fill-rule:nonzero;fill:url(#linear0);" d="M 2.046875 10.800781 L 22.511719 10.800781 C 23.640625 10.800781 24.558594 11.785156 24.558594 13 L 24.558594 35 C 24.558594 36.214844 23.640625 37.199219 22.511719 37.199219 L 2.046875 37.199219 C 0.917969 37.199219 0.00390625 36.214844 0.00390625 35 L 0.00390625 13 C 0.00390625 11.785156 0.917969 10.800781 2.046875 10.800781 Z M 2.046875 10.800781 "/>
<path style=" stroke:none;fill-rule:nonzero;fill:rgb(100%,100%,100%);fill-opacity:1;" d="M 6.339844 31.148438 L 10.644531 23.980469 L 6.699219 16.847656 L 9.871094 16.847656 L 12.023438 21.410156 C 12.222656 21.84375 12.359375 22.164062 12.433594 22.375 L 12.460938 22.375 C 12.601562 22.03125 12.75 21.695312 12.90625 21.371094 L 15.207031 16.851562 L 18.117188 16.851562 L 14.074219 23.941406 L 18.222656 31.148438 L 15.125 31.148438 L 12.636719 26.144531 C 12.519531 25.929688 12.421875 25.707031 12.339844 25.476562 L 12.304688 25.476562 C 12.230469 25.703125 12.132812 25.921875 12.015625 26.125 L 9.457031 31.148438 Z M 6.339844 31.148438 "/>
<path style=" stroke:none;fill-rule:nonzero;fill:rgb(20%,76.862745%,50.588235%);fill-opacity:1;" d="M 45.953125 0 L 30.140625 0 L 30.140625 12 L 47.996094 12 L 47.996094 2.199219 C 47.996094 0.984375 47.082031 0 45.953125 0 Z M 45.953125 0 "/>
<path style=" stroke:none;fill-rule:nonzero;fill:rgb(6.27451%,48.627451%,25.490196%);fill-opacity:1;" d="M 30.140625 24 L 47.996094 24 L 47.996094 36 L 30.140625 36 Z M 30.140625 24 "/>
</g>
</svg>
