<?xml version="1.0" encoding="UTF-8"?>
<svg xmlns="http://www.w3.org/2000/svg" xmlns:xlink="http://www.w3.org/1999/xlink" width="32px" height="32px" viewBox="0 0 32 32" version="1.1">
<g id="surface1">
<path style=" stroke:none;fill-rule:nonzero;fill:rgb(5.098039%,40%,64.705882%);fill-opacity:1;" d="M 0 0 L 31.996094 0 L 31.996094 31.996094 L 0 31.996094 Z M 0 0 "/>
<path style=" stroke:none;fill-rule:nonzero;fill:rgb(100%,100%,100%);fill-opacity:1;" d="M 28.621094 11.339844 L 24.851562 11.339844 L 20.953125 17.441406 L 24.21875 23.667969 L 27.535156 23.667969 L 24.320312 17.46875 Z M 28.621094 11.339844 "/>
<path style=" stroke:none;fill-rule:nonzero;fill:rgb(100%,100%,100%);fill-opacity:1;" d="M 20.445312 6.050781 L 17.761719 6.050781 L 17.535156 8.453125 L 18.445312 8.453125 L 17.078125 23.667969 L 20.242188 23.667969 L 21.6875 7.289062 C 21.6875 6.683594 21.128906 6.050781 20.445312 6.050781 "/>
<path style=" stroke:none;fill-rule:nonzero;fill:rgb(100%,83.137255%,1.568627%);fill-opacity:1;" d="M 16.066406 14.757812 L 15.28125 23.667969 L 12.117188 23.667969 L 12.902344 14.886719 C 12.929688 14.632812 12.902344 14.328125 12.726562 14.152344 C 12.597656 14.050781 12.421875 14 12.195312 14 C 10.929688 14 9.636719 14.910156 8.523438 15.46875 L 7.789062 23.667969 L 4.652344 23.667969 L 5.511719 13.746094 L 4.625 13.746094 L 4.828125 11.316406 L 7.234375 11.316406 C 7.917969 11.316406 8.472656 11.972656 8.472656 12.582031 L 8.472656 12.605469 C 9.03125 12.328125 9.585938 12.050781 10.167969 11.820312 C 11.230469 11.390625 12.371094 11.085938 13.511719 11.0625 C 14.449219 11.085938 15.308594 11.417969 15.738281 12.304688 C 16.117188 13.035156 16.144531 13.921875 16.066406 14.757812 "/>
</g>
</svg>
