<?xml version="1.0" encoding="UTF-8"?>
<svg xmlns="http://www.w3.org/2000/svg" xmlns:xlink="http://www.w3.org/1999/xlink" width="48px" height="48px" viewBox="0 0 48 48" version="1.1">
<g id="surface1">
<path style=" stroke:none;fill-rule:evenodd;fill:rgb(89.411765%,30.196078%,14.901961%);fill-opacity:1;" d="M 48 0.101562 L 43.628906 43.113281 L 23.972656 47.898438 L 4.367188 43.121094 L 0 0.101562 Z M 48 0.101562 "/>
<path style=" stroke:none;fill-rule:evenodd;fill:rgb(94.509804%,39.607843%,16.078431%);fill-opacity:1;" d="M 23.996094 44.242188 L 39.882812 40.375 L 43.617188 3.617188 L 23.996094 3.617188 Z M 23.996094 44.242188 "/>
<path style=" stroke:none;fill-rule:evenodd;fill:rgb(92.156863%,92.156863%,92.156863%);fill-opacity:1;" d="M 15.5 14.171875 L 24.003906 14.171875 L 24.003906 8.894531 L 8.929688 8.894531 L 9.074219 10.3125 L 10.546875 24.851562 L 23.992188 24.851562 L 23.992188 19.574219 L 16.050781 19.574219 Z M 16.851562 27.488281 L 10.824219 27.488281 L 11.664062 35.773438 L 23.976562 38.773438 L 24.003906 38.765625 L 24.003906 33.277344 L 23.976562 33.285156 L 17.28125 31.699219 Z M 16.851562 27.488281 "/>
<path style=" stroke:none;fill-rule:evenodd;fill:rgb(100%,100%,100%);fill-opacity:1;" d="M 23.980469 24.851562 L 31.378906 24.851562 L 30.683594 31.695312 L 23.980469 33.28125 L 23.980469 38.769531 L 36.300781 35.769531 L 36.390625 34.878906 L 37.800781 20.988281 L 37.949219 19.574219 L 23.980469 19.574219 Z M 23.980469 14.160156 L 23.980469 14.171875 L 38.492188 14.171875 L 38.613281 12.984375 L 38.886719 10.308594 L 39.027344 8.890625 L 23.980469 8.890625 Z M 23.980469 14.160156 "/>
</g>
</svg>
