<?xml version="1.0" encoding="UTF-8"?>
<svg xmlns="http://www.w3.org/2000/svg" xmlns:xlink="http://www.w3.org/1999/xlink" width="48px" height="48px" viewBox="0 0 48 48" version="1.1">
<defs>
<linearGradient id="linear0" gradientUnits="userSpaceOnUse" x1="19.075" y1="18.782" x2="34.898" y2="34.658" gradientTransform="matrix(1.5,0,0,1.5,-24,-23.8725)">
<stop offset="0" style="stop-color:rgb(21.960784%,49.411765%,72.156863%);stop-opacity:1;"/>
<stop offset="1" style="stop-color:rgb(21.176471%,41.176471%,58.039216%);stop-opacity:1;"/>
</linearGradient>
<linearGradient id="linear1" gradientUnits="userSpaceOnUse" x1="28.809" y1="28.882" x2="45.803" y2="45.163" gradientTransform="matrix(1.5,0,0,1.5,-24,-23.8725)">
<stop offset="0" style="stop-color:rgb(100%,87.843137%,32.156863%);stop-opacity:1;"/>
<stop offset="1" style="stop-color:rgb(100%,76.470588%,19.215686%);stop-opacity:1;"/>
</linearGradient>
</defs>
<g id="surface1">
<path style=" stroke:none;fill-rule:nonzero;fill:url(#linear0);" d="M 23.828125 0.128906 C 11.640625 0.128906 12.402344 5.410156 12.402344 5.410156 L 12.417969 10.886719 L 24.046875 10.886719 L 24.046875 12.53125 L 7.796875 12.53125 C 7.796875 12.53125 0 11.644531 0 23.941406 C 0 36.234375 6.804688 35.800781 6.804688 35.800781 L 10.867188 35.800781 L 10.867188 30.09375 C 10.867188 30.09375 10.648438 23.289062 17.566406 23.289062 L 29.097656 23.289062 C 29.097656 23.289062 35.578125 23.394531 35.578125 17.027344 L 35.578125 6.496094 C 35.578125 6.496094 36.5625 0.128906 23.828125 0.128906 Z M 17.414062 3.808594 C 18.570312 3.808594 19.507812 4.746094 19.507812 5.902344 C 19.507812 7.058594 18.570312 7.992188 17.414062 7.992188 C 16.859375 7.996094 16.328125 7.773438 15.933594 7.382812 C 15.542969 6.988281 15.320312 6.457031 15.324219 5.902344 C 15.324219 4.746094 16.257812 3.808594 17.414062 3.808594 Z M 17.414062 3.808594 "/>
<path style=" stroke:none;fill-rule:nonzero;fill:url(#linear1);" d="M 24.171875 47.878906 C 36.359375 47.878906 35.597656 42.59375 35.597656 42.59375 L 35.582031 37.117188 L 23.953125 37.117188 L 23.953125 35.476562 L 40.203125 35.476562 C 40.203125 35.476562 48 36.359375 48 24.066406 C 48 11.769531 41.195312 12.207031 41.195312 12.207031 L 37.132812 12.207031 L 37.132812 17.910156 C 37.132812 17.910156 37.351562 24.714844 30.433594 24.714844 L 18.902344 24.714844 C 18.902344 24.714844 12.421875 24.609375 12.421875 30.976562 L 12.421875 41.507812 C 12.421875 41.507812 11.4375 47.878906 24.171875 47.878906 Z M 30.585938 44.195312 C 30.03125 44.195312 29.496094 43.976562 29.105469 43.585938 C 28.710938 43.191406 28.492188 42.660156 28.492188 42.101562 C 28.492188 40.949219 29.429688 40.011719 30.585938 40.011719 C 31.742188 40.011719 32.675781 40.945312 32.675781 42.101562 C 32.675781 43.261719 31.742188 44.195312 30.585938 44.195312 Z M 30.585938 44.195312 "/>
</g>
</svg>
