<?xml version="1.0" encoding="UTF-8"?>
<svg xmlns="http://www.w3.org/2000/svg" xmlns:xlink="http://www.w3.org/1999/xlink" width="48px" height="48px" viewBox="0 0 48 48" version="1.1">
<g id="surface1">
<path style=" stroke:none;fill-rule:nonzero;fill:rgb(0%,0%,0%);fill-opacity:1;" d="M 36.03125 10.523438 C 36.03125 11.21875 36.738281 11.914062 37.722656 11.914062 C 39.128906 11.914062 39.550781 11.355469 39.550781 10.523438 C 39.550781 10.382812 39.550781 10.382812 39.550781 10.246094 C 39.410156 9.828125 38.988281 9.550781 38.566406 9.273438 C 38.425781 9.273438 38.144531 9.132812 37.863281 9.132812 C 36.878906 9.136719 36.03125 9.691406 36.03125 10.523438 Z M 36.03125 10.523438 "/>
<path style=" stroke:none;fill-rule:nonzero;fill:rgb(0%,0%,0%);fill-opacity:1;" d="M 38.988281 5.9375 C 38.847656 5.105469 38.285156 4.410156 37.582031 4.410156 C 36.878906 4.410156 36.457031 5.105469 36.597656 5.9375 C 36.738281 6.773438 37.300781 7.46875 38.003906 7.46875 C 38.566406 7.46875 39.128906 6.773438 38.988281 5.9375 Z M 38.988281 5.9375 "/>
<path style=" stroke:none;fill-rule:nonzero;fill:rgb(0%,0%,0%);fill-opacity:1;" d="M 32.65625 16.359375 L 35.046875 13.996094 C 36.457031 15.109375 38.144531 15.800781 39.976562 15.800781 C 44.339844 15.800781 47.855469 12.328125 47.855469 8.023438 C 47.855469 3.714844 44.339844 0.242188 39.976562 0.242188 C 35.613281 0.242188 32.09375 3.714844 32.09375 8.023438 C 32.09375 9.96875 32.796875 11.632812 33.921875 12.886719 L 31.527344 15.246094 C 31.953125 15.664062 32.375 16.082031 32.65625 16.359375 Z M 41.242188 5.523438 L 42.789062 5.523438 L 42.789062 3.996094 L 43.351562 3.996094 L 43.351562 5.523438 L 44.902344 5.523438 L 44.902344 6.078125 L 43.351562 6.078125 L 43.351562 7.605469 L 42.789062 7.605469 L 42.789062 6.078125 L 41.242188 6.078125 Z M 37.722656 8.160156 C 37.722656 8.023438 37.722656 7.882812 37.863281 7.746094 C 37.722656 7.746094 37.722656 7.746094 37.582031 7.746094 C 36.457031 7.746094 35.613281 6.910156 35.613281 5.9375 C 35.613281 4.964844 36.738281 4.132812 37.863281 4.132812 L 40.398438 4.132812 L 39.832031 4.550781 L 38.988281 4.550781 C 39.550781 4.6875 39.832031 5.382812 39.832031 6.078125 C 39.832031 6.632812 39.550781 7.050781 39.128906 7.46875 C 38.707031 7.746094 38.566406 7.882812 38.566406 8.160156 C 38.566406 8.4375 38.988281 8.855469 39.269531 8.996094 C 39.972656 9.410156 40.113281 9.96875 40.113281 10.660156 C 40.113281 11.632812 39.269531 12.46875 37.582031 12.46875 C 36.175781 12.46875 34.90625 11.914062 34.90625 10.941406 C 34.90625 9.96875 36.03125 9.132812 37.441406 9.132812 C 37.582031 9.132812 37.722656 9.132812 37.863281 9.132812 C 37.863281 8.71875 37.722656 8.441406 37.722656 8.160156 Z M 37.722656 8.160156 "/>
<path style=" stroke:none;fill-rule:nonzero;fill:rgb(0%,0%,0%);fill-opacity:1;" d="M 39.976562 32.195312 C 38.144531 32.195312 36.316406 32.890625 35.046875 34 L 32.65625 31.640625 C 32.375 32.054688 31.953125 32.332031 31.671875 32.609375 L 34.0625 34.972656 C 32.9375 36.359375 32.234375 38.03125 32.234375 39.835938 C 32.234375 44.140625 35.753906 47.617188 40.117188 47.617188 C 44.480469 47.617188 48 44.140625 48 39.835938 C 47.855469 35.53125 44.339844 32.195312 39.976562 32.195312 Z M 37.722656 43.449219 L 36.175781 43.449219 L 36.175781 38.585938 L 37.722656 38.585938 Z M 37.019531 37.890625 C 36.457031 37.890625 36.035156 37.476562 36.035156 37.058594 C 36.035156 36.640625 36.457031 36.222656 37.019531 36.222656 C 37.582031 36.222656 38.003906 36.640625 38.003906 37.058594 C 37.863281 37.613281 37.582031 37.890625 37.019531 37.890625 Z M 44.054688 43.449219 L 42.226562 43.449219 L 42.226562 40.949219 C 42.226562 40.253906 41.945312 39.835938 41.382812 39.835938 C 40.960938 39.835938 40.679688 40.113281 40.535156 40.394531 C 40.535156 40.535156 40.535156 40.671875 40.535156 40.808594 L 40.535156 43.449219 L 38.847656 43.449219 C 38.847656 43.449219 38.847656 39.003906 38.847656 38.585938 L 40.535156 38.585938 L 40.535156 39.28125 C 40.679688 39.003906 41.242188 38.449219 42.085938 38.449219 C 43.210938 38.449219 44.054688 39.144531 44.054688 40.671875 Z M 44.054688 43.449219 "/>
<path style=" stroke:none;fill-rule:nonzero;fill:rgb(0%,0%,0%);fill-opacity:1;" d="M 15.203125 31.640625 L 12.808594 34.003906 C 11.402344 32.890625 9.714844 32.195312 7.882812 32.195312 C 3.519531 32.195312 0 35.671875 0 39.976562 C 0 44.28125 3.519531 47.757812 7.882812 47.757812 C 12.246094 47.757812 15.765625 44.28125 15.765625 39.976562 C 15.765625 38.171875 15.0625 36.363281 13.9375 35.113281 L 16.328125 32.75 C 15.90625 32.335938 15.484375 31.917969 15.203125 31.640625 Z M 11.261719 38.726562 C 11.261719 41.085938 9.433594 43.726562 6.195312 43.726562 C 5.210938 43.726562 4.222656 43.449219 3.519531 42.890625 C 3.660156 42.890625 3.800781 42.890625 3.941406 42.890625 C 4.789062 42.890625 5.492188 42.613281 6.195312 42.195312 C 5.492188 42.195312 4.789062 41.640625 4.507812 40.945312 C 4.648438 40.945312 4.785156 40.945312 4.785156 40.945312 C 4.929688 40.945312 5.066406 40.945312 5.210938 40.945312 C 4.363281 40.804688 3.800781 40.113281 3.800781 39.277344 C 4.082031 39.417969 4.363281 39.554688 4.648438 39.554688 C 4.222656 39.277344 3.800781 38.722656 3.800781 38.167969 C 3.800781 37.890625 3.941406 37.613281 4.082031 37.332031 C 4.929688 38.445312 6.195312 39.140625 7.742188 39.140625 C 7.742188 39 7.742188 38.863281 7.742188 38.722656 C 7.742188 37.75 8.585938 36.917969 9.574219 36.917969 C 10.136719 36.917969 10.558594 37.195312 10.839844 37.472656 C 11.261719 37.332031 11.683594 37.195312 11.964844 37.054688 C 11.824219 37.472656 11.542969 37.75 11.121094 38.027344 C 11.542969 38.027344 11.824219 37.886719 12.105469 37.75 C 11.824219 38.167969 11.542969 38.445312 11.261719 38.582031 C 11.261719 38.585938 11.261719 38.585938 11.261719 38.726562 Z M 11.261719 38.726562 "/>
<path style=" stroke:none;fill-rule:nonzero;fill:rgb(0%,0%,0%);fill-opacity:1;" d="M 7.882812 15.804688 C 9.714844 15.804688 11.542969 15.109375 12.808594 13.996094 L 15.203125 16.359375 C 15.484375 15.941406 15.90625 15.664062 16.1875 15.386719 L 13.792969 13.023438 C 14.921875 11.636719 15.625 9.96875 15.625 8.164062 C 15.625 3.855469 12.105469 0.382812 7.742188 0.382812 C 3.378906 0.382812 0 3.855469 0 8.164062 C 0 12.328125 3.519531 15.804688 7.882812 15.804688 Z M 6.054688 6.773438 L 6.898438 6.773438 L 6.898438 5.9375 C 6.898438 4.828125 7.320312 4.132812 8.726562 4.132812 L 9.855469 4.132812 L 9.855469 5.523438 L 9.148438 5.523438 C 8.585938 5.523438 8.585938 5.660156 8.585938 6.078125 L 8.585938 6.773438 L 9.855469 6.773438 L 9.714844 8.160156 L 8.445312 8.160156 L 8.445312 12.050781 L 6.757812 12.050781 L 6.757812 8.160156 L 5.914062 8.160156 L 5.914062 6.773438 Z M 6.054688 6.773438 "/>
<path style=" stroke:none;fill-rule:nonzero;fill:rgb(0%,0%,0%);fill-opacity:1;" d="M 31.109375 27.886719 C 30.964844 27.613281 30.683594 27.472656 30.546875 27.472656 C 29.277344 27.054688 28.152344 26.777344 26.886719 26.359375 C 26.746094 26.359375 26.464844 26.082031 26.464844 25.527344 C 26.464844 25.25 26.464844 25.109375 26.183594 25.109375 C 26.039062 25.109375 26.183594 25.109375 26.039062 24.96875 C 25.902344 24.414062 25.902344 24.136719 25.902344 24 C 25.902344 23.859375 26.039062 23.859375 26.039062 23.71875 C 26.464844 23.164062 26.605469 22.332031 26.605469 22.054688 C 26.605469 22.054688 26.746094 22.054688 26.746094 21.914062 C 26.886719 21.636719 26.886719 21.636719 26.886719 21.21875 C 27.027344 20.941406 27.027344 20.523438 26.746094 20.523438 C 26.605469 20.664062 26.605469 20.523438 26.605469 20.246094 L 26.605469 18.582031 C 26.605469 18.023438 26.179688 17.609375 25.902344 17.46875 C 25.476562 17.191406 25.335938 17.050781 25.195312 17.050781 C 25.054688 16.914062 25.054688 16.773438 25.195312 16.636719 C 25.335938 16.496094 25.476562 16.496094 25.476562 16.355469 C 25.476562 16.355469 25.476562 16.355469 25.335938 16.355469 C 25.195312 16.355469 24.351562 16.496094 23.929688 16.636719 C 23.226562 16.773438 22.519531 17.050781 21.957031 17.46875 C 21.535156 17.746094 21.253906 18.164062 21.253906 18.71875 C 21.253906 18.996094 21.253906 19.832031 21.253906 20.386719 C 21.253906 20.527344 21.253906 20.664062 21.113281 20.527344 C 20.691406 20.527344 20.972656 21.082031 20.972656 21.222656 C 20.972656 21.5 21.113281 21.636719 21.253906 21.917969 C 21.253906 22.054688 21.394531 22.054688 21.394531 22.054688 C 21.535156 22.472656 21.675781 23.304688 21.957031 23.722656 C 21.957031 23.722656 22.097656 23.863281 22.097656 24 C 22.097656 24.277344 22.097656 24.695312 21.957031 24.972656 C 21.957031 24.972656 21.957031 25.113281 21.816406 25.113281 C 21.535156 25.113281 21.535156 25.25 21.535156 25.53125 C 21.535156 25.945312 21.253906 26.363281 21.113281 26.363281 C 20.410156 26.640625 18.300781 27.335938 17.59375 27.472656 C 17.171875 27.613281 17.03125 27.753906 16.890625 27.890625 L 16.1875 29.558594 C 19 29.558594 20.410156 31.226562 23.367188 31.78125 L 24.773438 31.78125 C 27.730469 31.363281 29.839844 29.558594 31.808594 29.558594 Z M 31.109375 27.886719 "/>
</g>
</svg>
