<?xml version="1.0" encoding="UTF-8"?>
<svg xmlns="http://www.w3.org/2000/svg" xmlns:xlink="http://www.w3.org/1999/xlink" width="40px" height="40px" viewBox="0 0 40 40" version="1.1">
<defs>
<linearGradient id="linear0" gradientUnits="userSpaceOnUse" x1="358.0351" y1="116.0585" x2="753.3551" y2="116.0585" gradientTransform="matrix(0.100949,0,0,0.0761087,-36.145731,13.894896)">
<stop offset="0" style="stop-color:rgb(3.529412%,36.078431%,63.529412%);stop-opacity:1;"/>
<stop offset="0.07" style="stop-color:rgb(4.313725%,38.039216%,66.666667%);stop-opacity:1;"/>
<stop offset="0.36" style="stop-color:rgb(12.941176%,43.921569%,71.764706%);stop-opacity:1;"/>
<stop offset="0.52" style="stop-color:rgb(16.078431%,45.490196%,72.941176%);stop-opacity:1;"/>
<stop offset="0.64" style="stop-color:rgb(14.117647%,44.313725%,72.156863%);stop-opacity:1;"/>
<stop offset="0.82" style="stop-color:rgb(9.019608%,41.568627%,70.196078%);stop-opacity:1;"/>
<stop offset="1" style="stop-color:rgb(3.529412%,36.078431%,63.529412%);stop-opacity:1;"/>
</linearGradient>
<radialGradient id="radial0" gradientUnits="userSpaceOnUse" cx="566.5825" cy="129.788" fx="566.5825" fy="129.788" r="218.01" gradientTransform="matrix(0.100949,0,0,0.0761087,-36.145731,13.894896)">
<stop offset="0" style="stop-color:rgb(94.901961%,94.901961%,94.901961%);stop-opacity:1;"/>
<stop offset="0.58" style="stop-color:rgb(93.72549%,93.333333%,93.333333%);stop-opacity:1;"/>
<stop offset="1" style="stop-color:rgb(90.588235%,90.196078%,90.196078%);stop-opacity:1;"/>
</radialGradient>
</defs>
<g id="surface1">
<path style=" stroke:none;fill-rule:nonzero;fill:url(#linear0);" d="M 20 10.917969 C 8.957031 10.917969 0 8.566406 0 5.460938 L 0 34.539062 C 0 37.527344 8.796875 39.953125 19.71875 40 L 20 40 C 31.042969 40 40 37.648438 40 34.539062 L 40 5.460938 C 40 8.496094 31.050781 10.917969 20 10.917969 Z M 20 10.917969 "/>
<path style=" stroke:none;fill-rule:nonzero;fill:rgb(91.372549%,90.980392%,90.980392%);fill-opacity:1;" d="M 40 5.460938 C 40 8.492188 31.042969 10.917969 20 10.917969 C 8.957031 10.917969 0 8.566406 0 5.460938 C 0 2.351562 8.957031 0 20 0 C 31.042969 0 40 2.351562 40 5.460938 "/>
<path style=" stroke:none;fill-rule:nonzero;fill:rgb(46.27451%,79.215686%,90.588235%);fill-opacity:1;" d="M 35.355469 5.011719 C 35.355469 6.941406 28.457031 8.496094 20 8.496094 C 11.542969 8.496094 4.644531 6.941406 4.644531 5.011719 C 4.644531 3.085938 11.542969 1.554688 20 1.554688 C 28.457031 1.554688 35.355469 3.105469 35.355469 5.011719 "/>
<path style=" stroke:none;fill-rule:nonzero;fill:rgb(10.980392%,54.509804%,70.588235%);fill-opacity:1;" d="M 20 5.882812 C 15.878906 5.800781 11.773438 6.253906 7.863281 7.222656 C 11.78125 8.171875 15.886719 8.601562 20 8.492188 C 24.121094 8.582031 28.234375 8.121094 32.136719 7.125 C 28.210938 6.207031 24.113281 5.785156 20 5.882812 Z M 20 5.882812 "/>
<path style=" stroke:none;fill-rule:nonzero;fill:url(#radial0);" d="M 32.175781 25.648438 L 32.175781 17.648438 L 29.367188 17.648438 L 29.367188 27.363281 L 37.039062 27.363281 L 37.039062 25.648438 Z M 9.890625 21.714844 C 9.304688 21.539062 8.773438 21.292969 8.296875 20.988281 C 8.039062 20.789062 7.910156 20.515625 7.925781 20.234375 C 7.902344 19.953125 8.082031 19.683594 8.394531 19.53125 C 8.78125 19.332031 9.238281 19.234375 9.707031 19.25 C 10.816406 19.210938 11.917969 19.449219 12.828125 19.929688 L 12.828125 17.90625 C 11.832031 17.625 10.769531 17.5 9.707031 17.527344 C 8.484375 17.476562 7.277344 17.761719 6.308594 18.328125 C 5.449219 18.828125 4.964844 19.605469 4.996094 20.421875 C 4.996094 21.625 5.996094 22.5625 8.113281 23.273438 C 8.804688 23.496094 9.457031 23.777344 10.050781 24.121094 C 10.34375 24.308594 10.511719 24.578125 10.519531 24.871094 C 10.519531 25.160156 10.332031 25.429688 10.019531 25.597656 C 9.59375 25.785156 9.109375 25.878906 8.613281 25.855469 C 7.363281 25.847656 6.148438 25.492188 5.214844 24.863281 L 5.214844 27.050781 C 6.246094 27.449219 7.394531 27.644531 8.554688 27.617188 C 9.859375 27.671875 11.15625 27.398438 12.234375 26.839844 C 13.007812 26.289062 13.390625 25.492188 13.265625 24.699219 C 13.28125 24.097656 13 23.507812 12.484375 23.050781 C 11.75 22.476562 10.867188 22.019531 9.890625 21.714844 Z M 26.238281 25.460938 C 27.621094 23.789062 27.621094 21.671875 26.238281 20 C 25.753906 19.265625 24.996094 18.648438 24.054688 18.238281 C 23.105469 17.832031 22.027344 17.621094 20.933594 17.625 C 19.757812 17.609375 18.589844 17.824219 17.5625 18.261719 C 16.601562 18.667969 15.808594 19.265625 15.285156 20 C 14.734375 20.828125 14.460938 21.75 14.472656 22.683594 C 14.480469 23.503906 14.734375 24.308594 15.226562 25.035156 C 15.703125 25.761719 16.449219 26.367188 17.382812 26.777344 C 18.324219 27.210938 19.398438 27.449219 20.5 27.480469 L 23.1875 29.832031 L 26.96875 29.832031 L 23.128906 27.246094 C 24.410156 26.953125 25.527344 26.316406 26.238281 25.460938 Z M 23.121094 24.871094 C 22.542969 25.40625 21.667969 25.710938 20.75 25.695312 C 19.824219 25.714844 18.945312 25.402344 18.382812 24.847656 C 17.722656 24.164062 17.402344 23.335938 17.480469 22.496094 C 17.402344 21.652344 17.730469 20.824219 18.382812 20.144531 C 18.976562 19.589844 19.871094 19.265625 20.820312 19.273438 C 21.746094 19.246094 22.625 19.570312 23.15625 20.144531 C 23.773438 20.835938 24.066406 21.664062 24 22.496094 C 24.105469 23.335938 23.796875 24.183594 23.121094 24.871094 Z M 23.121094 24.871094 "/>
</g>
</svg>
