<?xml version="1.0" encoding="UTF-8"?>
<svg xmlns="http://www.w3.org/2000/svg" xmlns:xlink="http://www.w3.org/1999/xlink" width="48px" height="48px" viewBox="0 0 48 48" version="1.1">
<g id="surface1">
<path style=" stroke:none;fill-rule:nonzero;fill:rgb(27.45098%,26.27451%,25.882353%);fill-opacity:1;" d="M 3.410156 24 C 3.410156 32.148438 8.148438 39.191406 15.015625 42.527344 L 5.195312 15.621094 C 4.050781 18.183594 3.410156 21.015625 3.410156 24 Z M 3.410156 24 "/>
<path style=" stroke:none;fill-rule:nonzero;fill:rgb(27.45098%,26.27451%,25.882353%);fill-opacity:1;" d="M 37.898438 22.960938 C 37.898438 20.417969 36.984375 18.65625 36.199219 17.285156 C 35.15625 15.585938 34.175781 14.152344 34.175781 12.457031 C 34.175781 10.5625 35.613281 8.800781 37.632812 8.800781 C 37.726562 8.800781 37.8125 8.8125 37.902344 8.816406 C 34.238281 5.460938 29.359375 3.414062 24 3.414062 C 16.804688 3.414062 10.480469 7.101562 6.796875 12.691406 C 7.28125 12.707031 7.734375 12.71875 8.121094 12.71875 C 10.277344 12.71875 13.609375 12.457031 13.609375 12.457031 C 14.71875 12.390625 14.851562 14.019531 13.742188 14.152344 C 13.742188 14.152344 12.625 14.285156 11.386719 14.347656 L 18.882812 36.648438 L 23.386719 23.136719 L 20.179688 14.347656 C 19.070312 14.28125 18.019531 14.152344 18.019531 14.152344 C 16.910156 14.085938 17.042969 12.390625 18.152344 12.457031 C 18.152344 12.457031 21.550781 12.714844 23.574219 12.714844 C 25.726562 12.714844 29.058594 12.457031 29.058594 12.457031 C 30.171875 12.390625 30.300781 14.019531 29.191406 14.152344 C 29.191406 14.152344 28.074219 14.28125 26.835938 14.347656 L 34.277344 36.476562 L 36.328125 29.617188 C 37.21875 26.769531 37.898438 24.722656 37.898438 22.960938 Z M 37.898438 22.960938 "/>
<path style=" stroke:none;fill-rule:nonzero;fill:rgb(27.45098%,26.27451%,25.882353%);fill-opacity:1;" d="M 24.359375 25.800781 L 18.183594 43.75 C 20.027344 44.292969 21.976562 44.589844 24 44.589844 C 26.394531 44.589844 28.695312 44.175781 30.835938 43.421875 C 30.78125 43.332031 30.730469 43.238281 30.6875 43.136719 Z M 24.359375 25.800781 "/>
<path style=" stroke:none;fill-rule:nonzero;fill:rgb(27.45098%,26.27451%,25.882353%);fill-opacity:1;" d="M 42.0625 14.121094 C 42.152344 14.777344 42.203125 15.480469 42.203125 16.238281 C 42.203125 18.328125 41.8125 20.675781 40.636719 23.613281 L 34.347656 41.796875 C 40.46875 38.226562 44.585938 31.59375 44.585938 24 C 44.585938 20.421875 43.671875 17.054688 42.0625 14.121094 Z M 42.0625 14.121094 "/>
<path style=" stroke:none;fill-rule:nonzero;fill:rgb(27.45098%,26.27451%,25.882353%);fill-opacity:1;" d="M 24 0.00390625 C 10.765625 0.00390625 0 10.765625 0 24 C 0 37.234375 10.765625 48 24 48 C 37.230469 48 48 37.234375 48 24 C 48 10.765625 37.230469 0.00390625 24 0.00390625 Z M 24 46.898438 C 11.371094 46.898438 1.101562 36.625 1.101562 24 C 1.101562 11.375 11.371094 1.101562 24 1.101562 C 36.625 1.101562 46.894531 11.375 46.894531 24 C 46.894531 36.625 36.625 46.898438 24 46.898438 Z M 24 46.898438 "/>
</g>
</svg>
